<svg width="722" height="439" viewBox="0 0 722 439" fill="none" xmlns="http://www.w3.org/2000/svg">
<g clip-path="url(#clip0_5140_7331)">
<path d="M27.9004 72.7L84.4004 41.5L63.3004 86.2L27.9004 72.7Z" stroke="white" stroke-width="2" stroke-miterlimit="10"/>
<path d="M123.301 68.5004L222.901 63.4004L136.801 88.8004L123.301 68.5004Z" stroke="white" stroke-width="2" stroke-miterlimit="10"/>
<path d="M63.3008 86.2L123.301 68.5L136.801 88.8L63.3008 86.2Z" stroke="white" stroke-width="2" stroke-miterlimit="10"/>
<path d="M86.0996 41.5L163.8 39L123.3 68.5L86.0996 41.5Z" stroke="white" stroke-width="2" stroke-miterlimit="10"/>
<path d="M245.701 28.7998L222.901 63.3998L163.801 38.9998L245.701 28.7998Z" stroke="white" stroke-width="2" stroke-miterlimit="10"/>
<path d="M294.7 38.9998L222.9 63.3998L245.7 28.7998L294.7 38.9998Z" stroke="white" stroke-width="2" stroke-miterlimit="10"/>
<path d="M324.3 90.5L222.9 63.4L294.7 39L324.3 90.5Z" stroke="white" stroke-width="2" stroke-miterlimit="10"/>
<path d="M453.5 17L324.3 90.5L294.7 39L453.5 17Z" stroke="white" stroke-width="2" stroke-miterlimit="10"/>
<path d="M573.4 49.9004L503.3 88.8004L532.8 31.4004L573.4 49.9004Z" stroke="white" stroke-width="2" stroke-miterlimit="10"/>
<path d="M430.7 44.9004L533.2 31.4004L503.3 88.8004L430.7 44.9004Z" stroke="white" stroke-width="2" stroke-miterlimit="10"/>
<path d="M532.8 31.4L396 49.9L453.5 17L532.8 31.4Z" stroke="white" stroke-width="2" stroke-miterlimit="10"/>
<path d="M18.6 141.1L0 117.5L12.7 109L18.6 141.1Z" stroke="white" stroke-width="2" stroke-miterlimit="10"/>
<path d="M0 117.5L22.7 86.7002L13.5 109L0 117.5Z" stroke="white" stroke-width="2" stroke-miterlimit="10"/>
<path d="M36.3 134.4L31.2 82.9004L13.5 109L36.3 134.4Z" stroke="white" stroke-width="2" stroke-miterlimit="10"/>
<path d="M27.9004 72.7002L14.4004 109" stroke="white" stroke-width="2" stroke-miterlimit="10"/>
<path d="M14.4004 109L31.2004 82.9002L27.9004 72.7002" stroke="white" stroke-width="2" stroke-miterlimit="10"/>
<path d="M18.5996 142L52.3996 143.7L36.2996 134.4L18.5996 142Z" stroke="white" stroke-width="2" stroke-miterlimit="10"/>
<path d="M13.5 109.9L18.6 142L37.2 134.4L13.5 109.9Z" stroke="white" stroke-width="2" stroke-miterlimit="10"/>
<path d="M46.4004 62.5996L59.1004 40.5996L70.9004 49.0996L46.4004 62.5996Z" stroke="white" stroke-width="2" stroke-miterlimit="10"/>
<path d="M36.2992 134.4L62.1992 86.1004L31.1992 82.9004L36.2992 134.4Z" stroke="white" stroke-width="2" stroke-miterlimit="10"/>
<path d="M136.801 88.8002L75.2008 135.2L63.3008 86.7002L136.801 88.8002Z" stroke="white" stroke-width="2" stroke-miterlimit="10"/>
<path d="M171.401 169L136.801 88.7998L60.8008 145.4L171.401 169Z" stroke="white" stroke-width="2" stroke-miterlimit="10"/>
<path d="M62.5008 85.4004L36.3008 134.4" stroke="white" stroke-width="2" stroke-miterlimit="10"/>
<path d="M36.3008 134.4H74.9008L62.5008 85.4004" stroke="white" stroke-width="2" stroke-miterlimit="10"/>
<path d="M52.4004 143.7L60.8004 145.4L74.2004 134.4L52.4004 143.7Z" stroke="white" stroke-width="2" stroke-miterlimit="10"/>
<path d="M222.901 63.4004L217.901 130.2L136.801 88.8004L222.901 63.4004Z" stroke="white" stroke-width="2" stroke-miterlimit="10"/>
<path d="M217.9 130.2L173.1 169H198.4L217.9 130.2Z" stroke="white" stroke-width="2" stroke-miterlimit="10"/>
<path d="M217.9 131L310.8 161.4L253.3 235.7L217.9 131Z" stroke="white" stroke-width="2" stroke-miterlimit="10"/>
<path d="M218.7 129.3L198.4 169L254.2 234" stroke="white" stroke-width="2" stroke-miterlimit="10"/>
<path d="M128.4 356.5L191.7 305.8L200.1 341.3L127.5 356.5L198.4 353.9" stroke="white" stroke-width="2" stroke-miterlimit="10"/>
<path d="M148.1 164L163.8 212.9L173.1 169L148.1 164Z" stroke="white" stroke-width="2" stroke-miterlimit="10"/>
<path d="M198.401 169L163.801 212.9L244.001 254.3L198.401 169Z" stroke="white" stroke-width="2" stroke-miterlimit="10"/>
<path d="M244 254.3L198.4 169" stroke="white" stroke-width="2" stroke-miterlimit="10"/>
<path d="M198.4 169L254.2 234L244 254.3" stroke="white" stroke-width="2" stroke-miterlimit="10"/>
<path d="M244.001 254.3L170.601 255.1L163.801 212.9L244.001 254.3Z" stroke="white" stroke-width="2" stroke-miterlimit="10"/>
<path d="M170.599 255.1L156.199 334.2L191.699 305.8" stroke="white" stroke-width="2" stroke-miterlimit="10"/>
<path d="M244 254.3L206.9 341.3L171.4 255.1L244 254.3Z" stroke="white" stroke-width="2" stroke-miterlimit="10"/>
<path d="M200.1 341.3L198.4 353.1L207.7 341.3H200.1Z" stroke="white" stroke-width="2" stroke-miterlimit="10"/>
<path d="M423.1 247.5L341.2 193.5L353 230.6L423.1 247.5Z" stroke="white" stroke-width="2" stroke-miterlimit="10"/>
<path d="M432.8 46.0996L431.6 46.5996L322.6 91.2996L341.2 192.6L432.8 46.0996Z" stroke="white" stroke-width="2" stroke-miterlimit="10"/>
<path d="M497.4 125.9L432.4 46.5996L341.2 192.6L497.4 125.9Z" stroke="white" stroke-width="2" stroke-miterlimit="10"/>
<path d="M532.8 211.2L341.2 192.6L421.6 247.5L532.8 211.2Z" stroke="white" stroke-width="2" stroke-miterlimit="10"/>
<path d="M421.4 247.5L469.5 244.2L532.8 211.2L421.4 247.5Z" stroke="white" stroke-width="2" stroke-miterlimit="10"/>
<path d="M497.4 125.9L532.8 211.2L341.2 192.6L497.4 125.9Z" stroke="white" stroke-width="2" stroke-miterlimit="10"/>
<path d="M340.3 193.5L222.9 63.4004L322.6 90.0004L340.3 193.5Z" stroke="white" stroke-width="2" stroke-miterlimit="10"/>
<path d="M340.3 193.5L310.8 161.4" stroke="white" stroke-width="2" stroke-miterlimit="10"/>
<path d="M298.1 336.2L357.2 318.5L288 286.4L298.1 336.2Z" stroke="white" stroke-width="2" stroke-miterlimit="10"/>
<path d="M254.2 234L288 286.4L322.6 235.7L254.2 234Z" stroke="white" stroke-width="2" stroke-miterlimit="10"/>
<path d="M503.3 88.7996L497.4 125.9L630 131L613.1 76.0996L503.3 88.7996Z" stroke="white" stroke-width="2" stroke-miterlimit="10"/>
<path d="M503.3 88.8004L573.4 49.9004L611.9 76.1004L503.3 88.8004Z" stroke="white" stroke-width="2" stroke-miterlimit="10"/>
<path d="M665.4 204.5L532.8 211.2L630 131L665.4 204.5Z" stroke="white" stroke-width="2" stroke-miterlimit="10"/>
<path d="M687.4 249.2L645.2 315.1L573.4 249.2H687.4Z" stroke="white" stroke-width="2" stroke-miterlimit="10"/>
<path d="M665.4 205.3L573.4 249.2L532.8 211.2L665.4 205.3Z" stroke="white" stroke-width="2" stroke-miterlimit="10"/>
<path d="M687.4 249.2L665.4 205.3" stroke="white" stroke-width="2" stroke-miterlimit="10"/>
<path d="M720.3 293.1L645.2 315.1L687.4 249.2L720.3 293.1Z" stroke="white" stroke-width="2" stroke-miterlimit="10"/>
<path d="M720.3 293.1L645.2 315.1L673.8 343L720.3 293.1Z" stroke="white" stroke-width="2" stroke-miterlimit="10"/>
<path d="M653.6 356.5L673 343L708.5 349.7L653.6 356.5Z" stroke="white" stroke-width="2" stroke-miterlimit="10"/>
<path d="M720.3 293.1L708.5 349.7L673.8 343L720.3 293.1Z" stroke="white" stroke-width="2" stroke-miterlimit="10"/>
<path d="M469.5 244.2L477.1 277.9L532.8 211.2L469.5 244.2Z" stroke="white" stroke-width="2" stroke-miterlimit="10"/>
<path d="M477.1 277.9L561.6 281.3L532.8 211.2L477.1 277.9Z" stroke="white" stroke-width="2" stroke-miterlimit="10"/>
<path d="M573.4 249.2L561.6 281.3" stroke="white" stroke-width="2" stroke-miterlimit="10"/>
<path d="M555.6 345.5L560.3 281.3L477.1 277.9L555.6 345.5Z" stroke="white" stroke-width="2" stroke-miterlimit="10"/>
<path d="M450.9 345.5L478.8 330.3L554 345.5H450.9Z" stroke="white" stroke-width="2" stroke-miterlimit="10"/>
<path d="M477.1 277.9L478.8 330.3L554 345.5L477.1 277.9Z" stroke="white" stroke-width="2" stroke-miterlimit="10"/>
<path d="M276.1 359L291.3 350.6L342 357.3L276.1 359Z" stroke="white" stroke-width="2" stroke-miterlimit="10"/>
<path d="M298.1 336.2L340.3 357.1L357.2 319.3L298.1 336.2Z" stroke="white" stroke-width="2" stroke-miterlimit="10"/>
<path d="M340.3 357.3L291.3 350.6L298.1 336.2L340.3 357.3Z" stroke="white" stroke-width="2" stroke-miterlimit="10"/>
<path d="M340.3 193.5L322.6 235.7L256.8 234L340.3 193.5Z" stroke="white" stroke-width="2" stroke-miterlimit="10"/>
<path d="M363.1 260.2L322.6 235.7L340.3 193.5L363.1 260.2Z" stroke="white" stroke-width="2" stroke-miterlimit="10"/>
<path d="M363.1 260.2L288 286.4L322.6 235.7L363.1 260.2Z" stroke="white" stroke-width="2" stroke-miterlimit="10"/>
<path d="M288 286.4L357.2 319.3L363.1 260.2L288 286.4Z" stroke="white" stroke-width="2" stroke-miterlimit="10"/>
</g>
<defs>
<clipPath id="clip0_5140_7331">
<rect width="722" height="439" fill="white"/>
</clipPath>
</defs>
</svg>
