<svg width="393" height="85" viewBox="0 0 393 85" fill="none" xmlns="http://www.w3.org/2000/svg">
<path d="M126.8 31.9V56.5C126.8 60.2999 128.1 62.2 130.8 62.2C133.5 62.2 134.8 60.2999 134.8 56.5V33.7H141.4C145.3 33.7 147.2 32.5 147.2 30C147.2 27.5 145.3 26.2 141.4 26.2H132.3C130 26.2 128.5 26.7 127.8 27.6C127.2 28.5 126.8 29.9 126.8 31.9ZM164 62.9C164.7 62.9 165.3 62.7999 165.9 62.5C166.5 62.2 167 61.3999 167.5 60.0999L178.7 31.4C178.9 30.9999 179 30.6 179.1 30.2C179.2 29.8 179.2 29.4 179.2 29.1C179.2 28.1 178.9 27.3 178.4 26.7C177.9 26.1 177.1 25.7999 176 25.7999C175.1 25.7999 174.4 26.1 173.9 26.6C173.4 27.1 172.9 27.9 172.5 29.1L167 43.7H166.8L160.8 28.7999C160.4 27.6999 159.9 27 159.5 26.5C159.1 26 158.4 25.7999 157.6 25.7999C156.6 25.7999 155.8 26.0999 155.2 26.7999C154.6 27.4999 154.3 28.2999 154.3 29.2999C154.3 29.9999 154.4 30.5999 154.7 31.2999L163.4 52.7L161.4 57.5999C161.1 58.2999 161 58.8999 161 59.5999C161 60.5999 161.3 61.4 161.8 62C162.1 62.5999 162.9 62.9 164 62.9ZM112.8 42.9V42.7C114.3 42.1 115.5 41.1999 116.3 40.0999C117.2 38.9999 117.6 37.5 117.6 35.5C117.6 32.3 116.5 29.9 114.4 28.2C112.3 26.5 109.1 25.7 104.9 25.7C103.4 25.7 102 25.8 100.7 26.1C99.4004 26.3 98.2004 26.7 97.1004 27.2C96.1004 27.7 95.3004 28.1999 94.7004 28.7999C94.1004 29.3999 93.8004 30.0999 93.8004 30.7999C93.8004 31.9999 94.1004 32.8999 94.7004 33.2999C95.3004 33.6999 96.1004 33.9 97.2004 33.9C97.9004 33.9 98.5004 33.8 99.1004 33.7C99.7004 33.6 100.2 33.4 100.8 33.2C101.4 33 102 32.9 102.6 32.7C103.2 32.6 104 32.5 104.8 32.5C108.1 32.5 109.7 33.8 109.7 36.4C109.7 37.6 109.2 38.4 108.3 39C107.4 39.5 106.3 39.7999 105.1 39.7999H102.9C101.4 39.7999 100.1 40.1 99.2004 40.7C98.3004 41.3 97.8004 42.2 97.8004 43.2C97.8004 44.3 98.3004 45.2 99.2004 45.7C100.1 46.3 101.4 46.5 102.9 46.5H105.1C106.7 46.5 108 46.9 108.8 47.7999C109.7 48.6999 110.1 49.6999 110.1 50.7999C110.1 52.0999 109.6 53.0999 108.7 53.7999C107.8 54.5 106.4 54.9 104.6 54.9C103.1 54.9 101.9 54.7999 101.2 54.5999C100.5 54.3999 99.8004 54.2 99.3004 54C98.8004 53.7999 98.3004 53.6 97.9004 53.4C97.4004 53.2 96.7004 53.0999 95.8004 53.0999C94.9004 53.0999 94.0004 53.2999 93.4004 53.7999C92.8004 54.2999 92.4004 55.0999 92.4004 56.0999C92.4004 57.0999 92.7004 58 93.3004 58.7999C93.9004 59.5999 94.8004 60.2 95.9004 60.7C97.0004 61.2 98.3004 61.5 99.7004 61.7999C101.2 62 102.7 62.2 104.4 62.2C107 62.2 109.3 61.9 111.1 61.4C112.9 60.9 114.3 60.0999 115.4 59.0999C116.5 58.0999 117.3 56.9 117.7 55.5C118.2 54.1 118.4 52.6 118.4 51C118.4 49.4 117.9 47.7999 117 46.2999C116.2 44.9 114.8 43.7 112.8 42.9Z" fill="white"/>
<path fill-rule="evenodd" clip-rule="evenodd" d="M16.1992 47.1L50.2992 74.4L70.6992 47.1H16.1992Z" fill="white"/>
<path fill-rule="evenodd" clip-rule="evenodd" d="M70.7004 47.1L29.9004 36.2001L33.5004 29.8V37.2001L40.5004 33.1L70.7004 47.1Z" fill="white"/>
<path fill-rule="evenodd" clip-rule="evenodd" d="M29.6992 36.2L31.6992 36.7L18.8992 47.0999H16.1992L29.6992 36.2Z" fill="white"/>
<path fill-rule="evenodd" clip-rule="evenodd" d="M58.9 26.7L59.7 28.2L42.7 34.0999L40.5 33.0999L58.9 26.7Z" fill="white"/>
<path fill-rule="evenodd" clip-rule="evenodd" d="M84.3004 33.5C79.2004 38 75.8004 42.5999 70.7004 47.0999L58.9004 26.7L84.3004 33.5Z" fill="white"/>
<path fill-rule="evenodd" clip-rule="evenodd" d="M84.3 33.5L82.5 33L81 27.7L69.8 29.6L66 28.6L82.2 25.7L84.3 33.5Z" fill="white"/>
<path fill-rule="evenodd" clip-rule="evenodd" d="M40.5 33.1L38.8 34.1L33.5 31.7001V29.8L40.5 33.1Z" fill="white"/>
<path fill-rule="evenodd" clip-rule="evenodd" d="M77.4992 6.30005L78.8992 11.7L84.2992 13.1L78.8992 14.5L77.4992 19.9L76.1992 14.5L70.6992 13.1L76.1992 11.7L77.4992 6.30005Z" fill="white"/>
<path d="M177.3 73.9C177.5 73.9 177.7 73.9 177.9 73.8C178.1 73.7 178.2 73.6 178.3 73.4C178.4 73.2 178.4 73 178.4 72.8C178.4 72.6 178.4 72.4 178.3 72.2C178.2 72 178.1 71.9 177.9 71.8C177.7 71.7 177.5 71.7 177.3 71.7C177.1 71.7 176.9 71.7 176.7 71.8C176.5 71.9 176.4 72 176.3 72.2C176.2 72.4 176.2 72.6 176.2 72.8C176.2 73 176.2 73.2 176.3 73.4C176.4 73.6 176.5 73.7 176.7 73.8C176.9 73.8 177.1 73.9 177.3 73.9ZM177.3 74.4C177 74.4 176.7 74.3 176.4 74.2C176.1 74.1 175.9 73.9 175.8 73.6C175.7 73.3 175.6 73.1 175.6 72.7C175.6 72.4 175.7 72.1 175.8 71.8C175.9 71.5 176.2 71.3 176.4 71.2C176.7 71.1 177 71 177.3 71C177.6 71 177.9 71.1 178.2 71.2C178.5 71.3 178.7 71.5 178.8 71.8C178.9 72.1 179 72.3 179 72.7C179 73 178.9 73.3 178.8 73.6C178.7 73.9 178.4 74.1 178.2 74.2C178 74.3 177.7 74.4 177.3 74.4ZM175.4 71.6H173.6V74.4H173V71H175.4V71.6ZM170.4 73.9C170.6 73.9 170.8 73.9 171 73.8C171.2 73.7 171.3 73.6 171.4 73.4C171.5 73.2 171.5 73 171.5 72.8C171.5 72.6 171.5 72.4 171.4 72.2C171.3 72 171.2 71.9 171 71.8C170.8 71.7 170.6 71.7 170.4 71.7C170.2 71.7 170 71.7 169.8 71.8C169.6 71.9 169.5 72 169.4 72.2C169.3 72.4 169.3 72.6 169.3 72.8C169.3 73 169.3 73.2 169.4 73.4C169.5 73.6 169.6 73.7 169.8 73.8C170 73.8 170.2 73.9 170.4 73.9ZM170.4 74.4C170.1 74.4 169.8 74.3 169.5 74.2C169.2 74.1 169 73.9 168.9 73.6C168.8 73.3 168.7 73.1 168.7 72.7C168.7 72.4 168.8 72.1 168.9 71.8C169 71.5 169.3 71.3 169.5 71.2C169.8 71.1 170.1 71 170.4 71C170.7 71 171 71.1 171.3 71.2C171.6 71.3 171.8 71.5 171.9 71.8C172 72.1 172.1 72.3 172.1 72.7C172.1 73 172 73.3 171.9 73.6C171.8 73.9 171.5 74.1 171.3 74.2C171 74.3 170.7 74.4 170.4 74.4ZM166.6 73H165.9V74.4H165.3V71H165.9V72.4H166.6L167.7 71H168.3L167 72.6L168.3 74.3H167.6L166.6 73ZM163.2 74.4C162.9 74.4 162.6 74.3 162.3 74.2C162 74.1 161.8 73.9 161.7 73.6C161.5 73.3 161.5 73.1 161.5 72.7C161.5 72.4 161.6 72.1 161.7 71.8C161.9 71.5 162.1 71.3 162.3 71.2C162.6 71.1 162.9 71 163.2 71C163.5 71 163.8 71.1 164 71.2C164.2 71.3 164.4 71.5 164.5 71.7L164 72C163.9 71.8 163.8 71.7 163.6 71.6C163.4 71.5 163.3 71.5 163.1 71.5C162.9 71.5 162.7 71.5 162.5 71.6C162.3 71.7 162.2 71.8 162.1 72C162 72.2 162 72.4 162 72.6C162 72.8 162 73 162.1 73.2C162.2 73.4 162.3 73.5 162.5 73.6C162.7 73.7 162.9 73.7 163.1 73.7C163.3 73.7 163.5 73.7 163.6 73.6C163.8 73.5 163.9 73.4 164 73.2L164.5 73.5C164.4 73.7 164.2 73.9 164 74C163.8 74.3 163.5 74.4 163.2 74.4ZM159.5 73.9C159.8 73.9 159.9 73.9 160.1 73.8C160.2 73.7 160.3 73.6 160.3 73.4C160.3 73.2 160.2 73.1 160.1 73C160 72.9 159.8 72.9 159.6 72.9H158.6V73.9H159.5ZM158.5 72.5H159.4C159.6 72.5 159.8 72.5 159.9 72.4C160 72.3 160.1 72.2 160.1 72C160.1 71.7 159.9 71.5 159.4 71.5H158.5V72.5ZM160.2 72.6C160.6 72.7 160.8 73 160.8 73.4C160.8 73.7 160.7 73.9 160.5 74.1C160.3 74.3 160 74.3 159.5 74.3H157.9V71H159.4C159.8 71 160.1 71.1 160.3 71.2C160.5 71.3 160.6 71.6 160.6 71.8C160.6 72 160.6 72.1 160.5 72.3C160.5 72.5 160.3 72.6 160.2 72.6ZM155.3 73.9C155.5 73.9 155.7 73.9 155.9 73.8C156.1 73.7 156.2 73.6 156.3 73.4C156.4 73.2 156.4 73 156.4 72.8C156.4 72.6 156.4 72.4 156.3 72.2C156.2 72 156.1 71.9 155.9 71.8C155.7 71.7 155.5 71.7 155.3 71.7C155.1 71.7 154.9 71.7 154.7 71.8C154.5 71.9 154.4 72 154.3 72.2C154.2 72.4 154.2 72.6 154.2 72.8C154.2 73 154.2 73.2 154.3 73.4C154.4 73.6 154.5 73.7 154.7 73.8C154.9 73.8 155.1 73.9 155.3 73.9ZM155.3 74.4C155 74.4 154.7 74.3 154.4 74.2C154.1 74.1 153.9 73.9 153.8 73.6C153.7 73.3 153.6 73.1 153.6 72.7C153.6 72.4 153.7 72.1 153.8 71.8C153.9 71.5 154.2 71.3 154.4 71.2C154.7 71.1 155 71 155.3 71C155.6 71 155.9 71.1 156.2 71.2C156.5 71.3 156.7 71.5 156.8 71.8C156.9 72.1 157 72.3 157 72.7C157 73 156.9 73.3 156.8 73.6C156.7 73.9 156.4 74.1 156.2 74.2C156 74.3 155.7 74.4 155.3 74.4ZM151.3 73.9C151.5 73.9 151.7 73.9 151.9 73.8C152.1 73.7 152.2 73.6 152.3 73.4C152.4 73.2 152.4 73 152.4 72.8C152.4 72.6 152.4 72.4 152.3 72.2C152.2 72 152.1 71.9 151.9 71.8C151.7 71.7 151.5 71.7 151.3 71.7C151.1 71.7 150.9 71.7 150.7 71.8C150.5 71.9 150.4 72 150.3 72.2C150.2 72.4 150.2 72.6 150.2 72.8C150.2 73 150.2 73.2 150.3 73.4C150.4 73.6 150.5 73.7 150.7 73.8C150.9 73.8 151.1 73.9 151.3 73.9ZM151.4 71C151.7 71 152 71.1 152.3 71.2C152.6 71.3 152.8 71.5 152.9 71.8C153 72.1 153.1 72.3 153.1 72.7C153.1 73 153 73.3 152.9 73.6C152.8 73.9 152.6 74.1 152.3 74.2C152 74.3 151.8 74.4 151.4 74.4C151.2 74.4 150.9 74.4 150.7 74.3C150.5 74.2 150.3 74.1 150.2 73.9V75.6H149.6V71H150.2V71.5C150.3 71.3 150.5 71.2 150.7 71.1C150.9 71.1 151.1 71 151.4 71ZM147 73.9C147.2 73.9 147.4 73.9 147.6 73.8C147.8 73.7 147.9 73.6 148 73.4C148.1 73.2 148.1 73 148.1 72.8C148.1 72.6 148.1 72.4 148 72.2C147.9 72 147.8 71.9 147.6 71.8C147.4 71.7 147.2 71.7 147 71.7C146.8 71.7 146.6 71.7 146.4 71.8C146.2 71.9 146.1 72 146 72.2C145.9 72.4 145.9 72.6 145.9 72.8C145.9 73 145.9 73.2 146 73.4C146.1 73.6 146.2 73.7 146.4 73.8C146.6 73.8 146.8 73.9 147 73.9ZM147 74.4C146.7 74.4 146.4 74.3 146.1 74.2C145.8 74.1 145.6 73.9 145.5 73.6C145.4 73.3 145.3 73.1 145.3 72.7C145.3 72.4 145.4 72.1 145.5 71.8C145.6 71.5 145.9 71.3 146.1 71.2C146.4 71.1 146.7 71 147 71C147.3 71 147.6 71.1 147.9 71.2C148.2 71.3 148.4 71.5 148.5 71.8C148.6 72.1 148.7 72.3 148.7 72.7C148.7 73 148.6 73.3 148.5 73.6C148.4 73.9 148.1 74.1 147.9 74.2C147.6 74.3 147.3 74.4 147 74.4ZM142.2 72.2C142.2 72.6 142.1 73 142.1 73.2C142 73.5 142 73.7 141.8 73.8H143.7V71.5H142.3L142.2 72.2ZM144.8 73.8V75.1H144.2V74.3H141.4V75.1H140.8V73.8H141C141.2 73.8 141.4 73.6 141.4 73.3C141.5 73 141.5 72.6 141.6 72.1V71H144.2V73.8H144.8ZM138.9 71.5C138.6 71.5 138.4 71.6 138.2 71.8C138 72 137.9 72.2 137.9 72.5H140C140 72.2 139.9 72 139.7 71.8C139.4 71.6 139.2 71.5 138.9 71.5ZM140.5 72.7C140.5 72.7 140.5 72.8 140.5 72.9H137.8C137.8 73.2 138 73.4 138.2 73.6C138.4 73.8 138.7 73.9 139 73.9C139.4 73.9 139.7 73.8 140 73.5L140.3 73.9C140.1 74.1 140 74.2 139.7 74.3C139.5 74.4 139.2 74.4 139 74.4C138.6 74.4 138.3 74.3 138.1 74.2C137.8 74.1 137.6 73.9 137.5 73.6C137.4 73.3 137.3 73 137.3 72.7C137.3 72.4 137.4 72.1 137.5 71.8C137.6 71.5 137.8 71.3 138.1 71.2C138.4 71.1 138.6 71 139 71C139.4 71 139.6 71.1 139.8 71.2C140 71.3 140.2 71.5 140.4 71.8C140.5 72.1 140.5 72.4 140.5 72.7ZM132 72.2C132 72.6 132.1 73 132.4 73.2C132.7 73.4 133.1 73.6 133.7 73.6V70.8C133.1 70.8 132.7 71 132.4 71.2C132.2 71.4 132 71.7 132 72.2ZM134.3 73.6C134.9 73.6 135.3 73.4 135.6 73.2C135.9 73 136 72.6 136 72.2C136 71.8 135.9 71.4 135.6 71.2C135.3 71 134.9 70.8 134.3 70.8V73.6ZM136.7 72.2C136.7 72.8 136.5 73.2 136.1 73.6C135.7 73.9 135.1 74.1 134.4 74.1V74.6H133.8V74.1C133.1 74.1 132.5 73.9 132.1 73.6C131.7 73.3 131.5 72.8 131.5 72.2C131.5 71.6 131.7 71.2 132.1 70.8C132.5 70.5 133.1 70.3 133.8 70.3V69.9H134.4V70.3C135.1 70.3 135.7 70.5 136.1 70.8C136.5 71.1 136.7 71.6 136.7 72.2ZM128.8 74.4C128.7 74.4 128.6 74.4 128.5 74.3C128.4 74.2 128.4 74.1 128.4 74C128.4 73.9 128.4 73.8 128.5 73.7C128.6 73.6 128.7 73.6 128.8 73.6C128.9 73.6 129 73.6 129.1 73.7C129.2 73.8 129.2 73.9 129.2 74C129.2 74.1 129.2 74.2 129.1 74.3C129 74.4 128.9 74.4 128.8 74.4ZM126.8 74.4V71.2L125.2 73.9H124.9L123.3 71.3V74.5H122.7V70H123.2L125 73.1L126.8 70H127.3V74.4H126.8ZM121.3 74.4C121.2 74.4 121.1 74.4 121 74.3C120.9 74.2 120.9 74.1 120.9 74C120.9 73.9 120.9 73.8 121 73.7C121.1 73.6 121.2 73.6 121.3 73.6C121.4 73.6 121.5 73.6 121.6 73.7C121.7 73.8 121.7 73.9 121.7 74C121.7 74.1 121.7 74.2 121.6 74.3C121.5 74.4 121.4 74.4 121.3 74.4ZM119.9 70V74.4H119.3V72.4H116.8V74.4H116.2V70H116.8V71.9H119.3V70H119.9ZM110 71H110.6V73.4L112.6 71H113.1V74.3H112.5V72L110.5 74.4H110V71ZM105.7 71H106.3V72.4H108.2V71H108.8V74.3H108.2V73H106.3V74.4H105.7V71ZM103.2 71.5C102.9 71.5 102.7 71.6 102.5 71.8C102.3 72 102.2 72.2 102.2 72.5H104.3C104.3 72.2 104.2 72 104 71.8C103.7 71.6 103.4 71.5 103.2 71.5ZM104.8 72.7C104.8 72.7 104.8 72.8 104.8 72.9H102.1C102.1 73.2 102.3 73.4 102.5 73.6C102.7 73.8 103 73.9 103.3 73.9C103.7 73.9 104 73.8 104.3 73.5L104.6 73.9C104.4 74.1 104.3 74.2 104 74.3C103.8 74.4 103.5 74.4 103.3 74.4C102.9 74.4 102.6 74.3 102.4 74.2C102.1 74.1 101.9 73.9 101.8 73.6C101.7 73.3 101.6 73 101.6 72.7C101.6 72.4 101.7 72.1 101.8 71.8C101.9 71.5 102.1 71.3 102.4 71.2C102.7 71.1 102.9 71 103.3 71C103.6 71 103.9 71.1 104.1 71.2C104.3 71.3 104.5 71.5 104.7 71.8C104.7 72.1 104.8 72.4 104.8 72.7ZM100.6 71V74.3H100.1V71.9L98.9004 73.9H98.6004L97.4004 71.8V74.2H96.8004V71H97.4004L98.7004 73.2L100 71H100.6ZM92.5004 71H93.1004V73.4L95.1004 71H95.6004V74.3H95.0004V72L93.0004 74.4H92.4004V71H92.5004Z" fill="white"/>
<path d="M390.523 48.4799V53.4414C390.523 54.6006 390.944 55.1802 391.761 55.1802C392.579 55.1802 393 54.6006 393 53.4414V45.7673C393 45.234 392.907 44.8167 392.743 44.5385C392.556 44.2603 392.276 44.1212 391.878 44.1212C391.598 44.1212 391.364 44.1907 391.154 44.3298C390.967 44.4689 390.757 44.6776 390.57 44.9326L385.989 50.9374V45.8832C385.989 44.724 385.569 44.1212 384.751 44.1212C383.933 44.1212 383.512 44.7008 383.512 45.8832V53.7428C383.512 54.2528 383.606 54.6006 383.769 54.8556C383.933 55.0875 384.213 55.2034 384.611 55.2034C384.891 55.2034 385.125 55.157 385.358 55.0411C385.592 54.9252 385.826 54.7165 386.059 54.392L390.523 48.4799Z" fill="white"/>
<path d="M388.233 44.1444C387.485 44.1444 386.877 43.9589 386.41 43.6111C385.943 43.2633 385.709 42.846 385.709 42.4055C385.709 42.1505 385.779 41.9418 385.919 41.8027C386.059 41.6404 386.246 41.5709 386.503 41.5709C386.737 41.5709 386.924 41.6172 387.018 41.7332C387.111 41.8259 387.204 41.9418 387.275 42.0809C387.345 42.1969 387.462 42.3128 387.578 42.4287C387.719 42.5214 387.929 42.591 388.233 42.591C388.537 42.591 388.747 42.5446 388.887 42.4287C389.027 42.336 389.121 42.22 389.191 42.0809C389.261 41.965 389.354 41.8491 389.448 41.7332C389.541 41.6404 389.705 41.5709 389.962 41.5709C390.219 41.5709 390.429 41.6404 390.57 41.8027C390.71 41.965 390.78 42.1505 390.78 42.4055C390.78 42.8692 390.546 43.2865 390.079 43.6343C389.588 43.9589 388.981 44.1444 388.233 44.1444Z" fill="white"/>
<path d="M380.03 53.4414V45.86C380.03 44.7008 379.61 44.098 378.768 44.098C377.95 44.098 377.53 44.6776 377.53 45.86V53.4414C377.53 54.6006 377.95 55.1802 378.768 55.1802C379.61 55.1802 380.03 54.6006 380.03 53.4414Z" fill="white"/>
<path d="M375.193 48.7117C374.538 48.0626 373.604 47.738 372.412 47.738H371.103V45.8832C371.103 44.724 370.683 44.1212 369.865 44.1212C369.047 44.1212 368.626 44.7008 368.626 45.8832V53.3255C368.626 53.9283 368.743 54.3688 368.953 54.647C369.164 54.9252 369.631 55.0643 370.332 55.0643H372.202C373.44 55.0643 374.422 54.7397 375.123 54.0674C375.824 53.395 376.174 52.514 376.174 51.4011C376.174 50.2651 375.847 49.3609 375.193 48.7117ZM371.874 52.7922H371.08V49.9637H371.874C372.996 49.9637 373.557 50.4274 373.557 51.378C373.58 52.3285 372.996 52.7922 371.874 52.7922Z" fill="white"/>
<path d="M358.39 53.4414V50.6824H362.947V53.4414C362.947 54.6006 363.368 55.1802 364.186 55.1802C365.004 55.1802 365.425 54.6006 365.425 53.4414V45.86C365.425 44.7008 365.004 44.098 364.186 44.098C363.368 44.098 362.947 44.6776 362.947 45.86V48.3871H358.39V45.86C358.39 44.7008 357.97 44.098 357.152 44.098C356.334 44.098 355.913 44.6776 355.913 45.86V53.4414C355.913 54.6006 356.334 55.1802 357.152 55.1802C357.993 55.1802 358.39 54.6006 358.39 53.4414Z" fill="white"/>
<path d="M345.631 53.4414V50.6824H350.188V53.4414C350.188 54.6006 350.609 55.1802 351.426 55.1802C352.244 55.1802 352.665 54.6006 352.665 53.4414V45.86C352.665 44.7008 352.244 44.098 351.426 44.098C350.609 44.098 350.188 44.6776 350.188 45.86V48.3871H345.631V45.86C345.631 44.7008 345.21 44.098 344.392 44.098C343.574 44.098 343.154 44.6776 343.154 45.86V53.4414C343.154 54.6006 343.574 55.1802 344.392 55.1802C345.234 55.1802 345.631 54.6006 345.631 53.4414Z" fill="white"/>
<path d="M338.69 44.2603H335.909C335.208 44.2603 334.741 44.3994 334.531 44.6776C334.32 44.9558 334.203 45.3963 334.203 45.9759V53.4878C334.203 54.0674 334.32 54.4847 334.554 54.6934C334.788 54.9252 335.232 55.0411 335.886 55.0411H338.76C339.929 55.0411 340.537 54.6702 340.537 53.9051C340.537 53.14 339.952 52.7458 338.76 52.7458H336.657V50.7288H338.41C339.578 50.7288 340.163 50.3578 340.163 49.5927C340.163 48.8276 339.578 48.4567 338.41 48.4567H336.657V46.5324H338.69C339.859 46.5324 340.466 46.1614 340.466 45.3963C340.466 44.6544 339.882 44.2603 338.69 44.2603Z" fill="white"/>
<path d="M331.119 50.2419C330.838 49.871 330.371 49.5927 329.74 49.3841V49.3377C330.254 49.0827 330.605 48.7581 330.768 48.3408C330.932 47.9466 331.025 47.4598 331.025 46.9265C331.025 46.115 330.675 45.4659 329.997 44.979C329.296 44.4921 328.408 44.2371 327.286 44.2371H325.253C324.552 44.2371 324.085 44.3762 323.874 44.6544C323.664 44.9326 323.547 45.3731 323.547 45.9528V53.4646C323.547 54.0442 323.664 54.4615 323.898 54.6702C324.131 54.902 324.575 55.0179 325.23 55.0179H327.684C328.945 55.0179 329.904 54.7165 330.581 54.1369C331.236 53.5573 331.586 52.769 331.586 51.7721C331.539 51.1461 331.399 50.6129 331.119 50.2419ZM326.001 46.3701H327.076C328.034 46.3701 328.525 46.7178 328.525 47.4134C328.525 47.8075 328.431 48.0857 328.221 48.248C328.011 48.4103 327.637 48.5031 327.076 48.5031H326.001V46.3701ZM328.572 52.6299C328.315 52.8386 327.894 52.9313 327.24 52.9313H326.001V50.4042H327.193C327.847 50.4042 328.315 50.4969 328.548 50.7056C328.782 50.9143 328.922 51.2388 328.922 51.7257C328.922 52.1199 328.805 52.4213 328.572 52.6299Z" fill="white"/>
<path d="M319.481 44.2603H315.158C313.989 44.2603 313.382 44.6544 313.382 45.4195C313.382 46.1846 313.966 46.5556 315.158 46.5556H316.069V53.4646C316.069 54.6238 316.49 55.2034 317.308 55.2034C318.126 55.2034 318.546 54.6238 318.546 53.4646V46.5556H319.458C320.626 46.5556 321.234 46.1846 321.234 45.4195C321.234 44.6544 320.649 44.2603 319.481 44.2603Z" fill="white"/>
<path d="M310.788 52.3517C310.507 52.3517 310.18 52.4444 309.83 52.6067C309.479 52.7922 309.035 52.8618 308.544 52.8618C307.726 52.8618 307.095 52.5836 306.605 52.0271C306.114 51.4707 305.88 50.7056 305.88 49.7087C305.88 48.6885 306.114 47.9003 306.605 47.2975C307.095 46.7178 307.726 46.4165 308.498 46.4165C308.942 46.4165 309.362 46.486 309.713 46.6251C310.063 46.7642 310.39 46.8338 310.648 46.8338C310.928 46.8338 311.162 46.7178 311.372 46.5092C311.582 46.3005 311.676 46.0455 311.676 45.7673C311.676 45.5586 311.606 45.3268 311.442 45.1413C311.278 44.9326 311.068 44.7703 310.788 44.608C310.507 44.4458 310.157 44.3298 309.783 44.2371C309.386 44.1444 308.965 44.098 308.498 44.098C307.773 44.098 307.072 44.2371 306.441 44.4921C305.81 44.7472 305.249 45.1181 304.805 45.605C304.338 46.0919 303.964 46.6715 303.707 47.367C303.426 48.0626 303.31 48.8276 303.31 49.6623C303.31 50.5201 303.426 51.2852 303.684 51.9576C303.941 52.6299 304.291 53.2095 304.759 53.6964C305.226 54.1601 305.763 54.5311 306.394 54.7861C307.025 55.0411 307.726 55.1802 308.498 55.1802C309.502 55.1802 310.32 54.9948 310.928 54.647C311.536 54.2992 311.839 53.8819 311.839 53.4182C311.839 53.14 311.746 52.885 311.536 52.6763C311.255 52.4676 311.021 52.3517 310.788 52.3517Z" fill="white"/>
<path d="M296.79 44.2603H294.57C293.869 44.2603 293.401 44.3994 293.191 44.6776C292.981 44.9558 292.864 45.3963 292.864 45.9759V53.4414C292.864 54.6006 293.284 55.1802 294.102 55.1802C294.92 55.1802 295.341 54.6006 295.341 53.4414V51.5866H297.023C298.215 51.5866 299.15 51.262 299.828 50.6129C300.482 49.9637 300.809 49.0595 300.809 47.9466C300.809 46.8338 300.459 45.9296 299.758 45.2804C299.033 44.608 298.052 44.2603 296.79 44.2603ZM296.392 49.3609H295.317V46.5324H296.392C297.537 46.5324 298.098 46.9961 298.098 47.9466C298.098 48.874 297.537 49.3609 296.392 49.3609Z" fill="white"/>
<path d="M290.13 53.3023L287.395 45.5354C287.045 44.6081 286.437 44.1212 285.549 44.1212C284.685 44.1212 284.054 44.6544 283.656 45.6977L280.829 53.3023C280.759 53.5109 280.712 53.766 280.712 54.021C280.712 54.3688 280.829 54.647 281.039 54.8556C281.249 55.0643 281.553 55.1802 281.88 55.1802C282.441 55.1802 282.838 54.8325 283.072 54.1137L283.516 52.769H287.372L287.769 54.021C288.026 54.8093 288.447 55.1802 289.078 55.1802C289.428 55.1802 289.709 55.0875 289.943 54.8788C290.176 54.6702 290.293 54.4151 290.293 54.0674C290.293 53.9514 290.27 53.8355 290.246 53.7196C290.246 53.6037 290.2 53.4646 290.13 53.3023ZM284.264 50.5897L285.502 46.7874H285.549L286.741 50.5897H284.264Z" fill="white"/>
<path d="M277.417 53.0009H277.043L274.402 45.4891C274.239 45.0486 274.005 44.7008 273.701 44.4689C273.397 44.2371 273.023 44.1212 272.626 44.1212C271.785 44.1212 271.177 44.6312 270.78 45.6514L268.046 52.9777H267.742C267.391 52.9777 267.158 53.0704 266.994 53.2327C266.831 53.395 266.76 53.6732 266.76 54.0442C266.76 54.3456 266.831 54.6006 266.994 54.7629C267.158 54.9484 267.391 55.0411 267.742 55.0411H277.393C277.744 55.0411 278.001 54.9484 278.188 54.7629C278.375 54.5774 278.468 54.3456 278.468 54.0442C278.468 53.7196 278.375 53.4646 278.188 53.2791C278.024 53.0936 277.744 53.0009 277.417 53.0009ZM270.5 53.0009L272.533 46.7178H272.579L274.542 53.0009H270.5Z" fill="white"/>
<path d="M264.237 44.1212C263.909 44.1212 263.676 44.2139 263.512 44.3762C263.349 44.5617 263.185 44.8399 263.021 45.2572L261.082 50.4042H261.035L258.908 45.1645C258.745 44.7935 258.581 44.5153 258.441 44.353C258.301 44.1907 258.067 44.098 257.787 44.098C257.436 44.098 257.156 44.2139 256.922 44.4458C256.712 44.6776 256.595 44.979 256.595 45.3268C256.595 45.5818 256.642 45.7905 256.735 46.0223L259.796 53.5573L259.095 55.2962C259.002 55.528 258.955 55.7598 258.955 56.0149C258.955 56.3626 259.049 56.6409 259.236 56.8727C259.423 57.0814 259.703 57.1973 260.054 57.1973C260.311 57.1973 260.521 57.1509 260.708 57.035C260.895 56.9423 261.105 56.6409 261.269 56.1772L265.218 46.0919C265.288 45.9528 265.312 45.7905 265.358 45.6514C265.382 45.5122 265.405 45.3731 265.405 45.2572C265.405 44.9095 265.312 44.6312 265.125 44.4226C264.891 44.2139 264.611 44.1212 264.237 44.1212Z" fill="white"/>
<path d="M254.094 52.3517C253.814 52.3517 253.487 52.4444 253.136 52.6067C252.786 52.7922 252.342 52.8618 251.851 52.8618C251.033 52.8618 250.402 52.5836 249.911 52.0271C249.421 51.4707 249.187 50.7056 249.187 49.7087C249.187 48.6885 249.421 47.9003 249.911 47.2975C250.402 46.7178 251.033 46.4165 251.804 46.4165C252.248 46.4165 252.669 46.486 253.019 46.6251C253.37 46.7642 253.697 46.8338 253.954 46.8338C254.235 46.8338 254.468 46.7178 254.679 46.5092C254.889 46.3005 254.982 46.0455 254.982 45.7673C254.982 45.5586 254.912 45.3268 254.749 45.1413C254.585 44.9326 254.375 44.7703 254.094 44.608C253.814 44.4458 253.463 44.3298 253.09 44.2371C252.692 44.1444 252.272 44.098 251.804 44.098C251.08 44.098 250.379 44.2371 249.748 44.4921C249.117 44.7472 248.556 45.1181 248.112 45.605C247.645 46.0919 247.271 46.6715 247.014 47.367C246.733 48.0626 246.616 48.8276 246.616 49.6623C246.616 50.5201 246.733 51.2852 246.99 51.9576C247.247 52.6299 247.598 53.2095 248.065 53.6964C248.533 54.1601 249.07 54.5311 249.701 54.7861C250.332 55.0411 251.033 55.1802 251.804 55.1802C252.809 55.1802 253.627 54.9948 254.235 54.647C254.842 54.2992 255.146 53.8819 255.146 53.4182C255.146 53.14 255.053 52.885 254.842 52.6763C254.562 52.4676 254.328 52.3517 254.094 52.3517Z" fill="white"/>
<path d="M242.41 45.6282C241.943 45.1413 241.405 44.7703 240.774 44.5153C240.143 44.2603 239.442 44.1212 238.648 44.1212C237.876 44.1212 237.175 44.2603 236.521 44.5153C235.89 44.7703 235.329 45.1413 234.885 45.6282C234.418 46.115 234.067 46.6947 233.81 47.3902C233.553 48.0626 233.436 48.8277 233.436 49.6623C233.436 50.4969 233.553 51.262 233.81 51.9344C234.067 52.6067 234.418 53.1864 234.862 53.6732C235.306 54.1601 235.867 54.5311 236.498 54.7861C237.129 55.0411 237.853 55.1802 238.624 55.1802C239.419 55.1802 240.12 55.0411 240.774 54.7861C241.428 54.5311 241.966 54.1601 242.41 53.6732C242.854 53.1864 243.204 52.6067 243.462 51.9344C243.695 51.262 243.835 50.4969 243.835 49.6623C243.835 48.8277 243.719 48.0626 243.462 47.3902C243.228 46.7178 242.854 46.115 242.41 45.6282ZM240.564 52.0271C240.073 52.6067 239.465 52.885 238.694 52.885C237.923 52.885 237.315 52.6067 236.825 52.0271C236.357 51.4475 236.1 50.6592 236.1 49.6623C236.1 48.619 236.334 47.8075 236.825 47.2279C237.292 46.6483 237.923 46.3469 238.694 46.3469C239.465 46.3469 240.096 46.6483 240.564 47.2279C241.031 47.8075 241.288 48.619 241.288 49.6623C241.288 50.6592 241.055 51.4475 240.564 52.0271Z" fill="white"/>
<path d="M230.165 44.2603H227.384C226.683 44.2603 226.215 44.3994 226.005 44.6776C225.795 44.9558 225.678 45.3963 225.678 45.9759V53.4414C225.678 54.6006 226.098 55.1802 226.916 55.1802C227.734 55.1802 228.155 54.6006 228.155 53.4414V46.5324H230.188C231.356 46.5324 231.964 46.1614 231.964 45.3963C231.941 44.6544 231.356 44.2603 230.165 44.2603Z" fill="white"/>
<path d="M345.257 26.0372C345.07 25.7358 344.79 25.5967 344.369 25.5967C344.089 25.5967 343.832 25.6662 343.645 25.8053C343.434 25.9444 343.247 26.1531 343.037 26.4081L338.363 32.5289V27.4051C338.363 26.2227 337.943 25.6199 337.101 25.6199C336.26 25.6199 335.839 26.2227 335.839 27.4051V35.4038C335.839 35.9138 335.933 36.2848 336.096 36.5398C336.26 36.7717 336.564 36.9108 336.961 36.9108C337.241 36.9108 337.499 36.8412 337.732 36.7253C337.966 36.6094 338.2 36.3775 338.433 36.0761L343.014 30.0945V35.1487C343.014 36.3311 343.434 36.9108 344.276 36.9108C345.117 36.9108 345.537 36.3311 345.537 35.1487V27.3123C345.537 26.7559 345.444 26.3386 345.257 26.0372Z" fill="white"/>
<path d="M338.831 25.0866C339.298 25.4576 339.929 25.643 340.677 25.643C341.448 25.643 342.056 25.4576 342.523 25.1098C342.99 24.7388 343.224 24.3447 343.224 23.8578C343.224 23.6028 343.154 23.3941 343.014 23.2318C342.873 23.0696 342.663 23 342.406 23C342.149 23 341.985 23.0464 341.892 23.1623C341.798 23.2782 341.705 23.371 341.635 23.5101C341.565 23.626 341.448 23.7419 341.331 23.8578C341.191 23.9738 340.981 24.0201 340.677 24.0201C340.373 24.0201 340.139 23.9738 340.022 23.8578C339.882 23.7419 339.789 23.6492 339.695 23.5101C339.625 23.3941 339.532 23.2782 339.438 23.1623C339.345 23.0464 339.181 23 338.924 23C338.667 23 338.48 23.0696 338.34 23.2318C338.2 23.3941 338.129 23.6028 338.129 23.8578C338.129 24.2983 338.363 24.7157 338.831 25.0866Z" fill="white"/>
<path d="M331.095 25.5967C330.254 25.5967 329.833 26.1995 329.833 27.3819V35.1024C329.833 36.2848 330.254 36.8644 331.095 36.8644C331.937 36.8644 332.381 36.2848 332.381 35.1024V27.4051C332.357 26.1995 331.937 25.5967 331.095 25.5967Z" fill="white"/>
<path d="M324.575 29.283H323.243V27.4051C323.243 26.2227 322.823 25.6199 321.981 25.6199C321.14 25.6199 320.72 26.2227 320.72 27.4051V34.9864C320.72 35.5892 320.836 36.0297 321.047 36.3311C321.28 36.6094 321.748 36.7485 322.449 36.7485H324.342C325.604 36.7485 326.585 36.4007 327.31 35.7283C328.034 35.056 328.385 34.1518 328.385 33.0157C328.385 31.8565 328.057 30.9523 327.38 30.28C326.749 29.6076 325.814 29.283 324.575 29.283ZM324.061 34.4532H323.243V31.5551H324.061C325.206 31.5551 325.791 32.042 325.791 33.0157C325.767 33.9663 325.206 34.4532 324.061 34.4532Z" fill="white"/>
<path d="M316.233 25.5967C315.391 25.5967 314.971 26.1995 314.971 27.3819V29.9786H310.32V27.4051C310.32 26.2227 309.9 25.6199 309.058 25.6199C308.217 25.6199 307.796 26.2227 307.796 27.4051V35.1255C307.796 36.308 308.217 36.8876 309.058 36.8876C309.9 36.8876 310.32 36.308 310.32 35.1255V32.297H314.971V35.1024C314.971 36.2848 315.391 36.8644 316.233 36.8644C317.074 36.8644 317.495 36.2848 317.495 35.1024V27.4051C317.495 26.1995 317.074 25.5967 316.233 25.5967Z" fill="white"/>
<path d="M301.253 25.759H298.986C298.285 25.759 297.795 25.8981 297.584 26.1763C297.351 26.4545 297.257 26.895 297.257 27.4978V35.1024C297.257 36.2848 297.678 36.8644 298.519 36.8644C299.36 36.8644 299.781 36.2848 299.781 35.1024V33.2244H301.487C302.702 33.2244 303.66 32.8998 304.338 32.2275C305.016 31.5551 305.343 30.6509 305.343 29.4917C305.343 28.3556 304.992 27.4514 304.268 26.7559C303.52 26.0836 302.538 25.759 301.253 25.759ZM300.833 30.9523H299.734V28.0542H300.833C302.001 28.0542 302.585 28.5411 302.585 29.4917C302.585 30.4654 302.001 30.9523 300.833 30.9523Z" fill="white"/>
<path d="M292.583 25.759H290.62C289.265 25.759 288.213 26.0836 287.489 26.7095C286.764 27.3355 286.39 28.1702 286.39 29.1903C286.39 29.9786 286.624 30.6509 287.092 31.161C287.559 31.6942 288.213 32.0188 289.031 32.1579L287.045 34.3605C286.554 34.9169 286.297 35.3806 286.297 35.7979C286.297 36.1225 286.414 36.3775 286.648 36.5862C286.881 36.7948 287.162 36.8876 287.512 36.8876C287.769 36.8876 287.98 36.818 288.19 36.7021C288.4 36.563 288.611 36.3775 288.844 36.0993L291.789 32.3898V35.1024C291.789 36.2848 292.209 36.8644 293.074 36.8644C293.915 36.8644 294.336 36.2848 294.336 35.1024V27.4978C294.336 26.895 294.219 26.4545 293.985 26.1763C293.728 25.8981 293.284 25.759 292.583 25.759ZM291.789 30.7437H290.62C290.106 30.7437 289.709 30.6277 289.428 30.3727C289.148 30.1409 289.008 29.7931 289.008 29.3526C289.008 28.9353 289.148 28.6339 289.428 28.402C289.709 28.1702 290.083 28.0542 290.597 28.0542H291.789V30.7437Z" fill="white"/>
<path d="M283.796 34.9633L280.992 27.0341C280.642 26.0836 280.011 25.5967 279.123 25.5967C278.235 25.5967 277.58 26.1299 277.183 27.2196L274.285 34.9864C274.215 35.2183 274.168 35.4501 274.168 35.7052C274.168 36.0529 274.285 36.3311 274.496 36.5398C274.729 36.7485 275.01 36.8644 275.36 36.8644C275.944 36.8644 276.342 36.4934 276.575 35.7747L279.006 28.3093H279.053L281.366 35.682C281.623 36.4703 282.067 36.8644 282.698 36.8644C283.049 36.8644 283.352 36.7717 283.586 36.563C283.82 36.3543 283.96 36.0761 283.96 35.7283C283.96 35.6124 283.937 35.4965 283.913 35.3806C283.913 35.2647 283.867 35.1255 283.796 34.9633Z" fill="white"/>
<path d="M271.154 27.15C270.686 26.6632 270.126 26.269 269.471 26.014C268.817 25.7358 268.093 25.6199 267.321 25.6199C266.527 25.6199 265.826 25.759 265.171 26.014C264.517 26.2922 263.956 26.6632 263.489 27.15C263.021 27.6369 262.648 28.2397 262.39 28.9353C262.133 29.6308 262.017 30.3959 262.017 31.2537C262.017 32.1115 262.157 32.8766 262.39 33.5722C262.648 34.2677 262.998 34.8473 263.465 35.3342C263.933 35.8211 264.494 36.192 265.125 36.4703C265.779 36.7485 266.503 36.8644 267.298 36.8644C268.093 36.8644 268.817 36.7253 269.471 36.4703C270.126 36.192 270.686 35.8211 271.154 35.3342C271.621 34.8473 271.972 34.2445 272.229 33.5722C272.486 32.8766 272.603 32.1115 272.603 31.2537C272.603 30.3959 272.486 29.6308 272.229 28.9353C271.995 28.2397 271.621 27.6369 271.154 27.15ZM269.284 33.6649C268.794 34.2445 268.163 34.5459 267.391 34.5459C266.62 34.5459 265.989 34.2445 265.499 33.6649C265.008 33.0853 264.774 32.2738 264.774 31.2537C264.774 30.2104 265.008 29.3758 265.499 28.773C265.989 28.1702 266.62 27.8688 267.391 27.8688C268.186 27.8688 268.817 28.1702 269.308 28.773C269.798 29.3758 270.032 30.2104 270.032 31.2537C270.032 32.2738 269.775 33.0853 269.284 33.6649Z" fill="white"/>
<path d="M257.436 25.759H251.22C250.075 25.759 249.491 26.3386 249.491 27.521V35.1024C249.491 36.2848 249.911 36.8644 250.753 36.8644C251.594 36.8644 252.015 36.2848 252.015 35.1024V27.9615H256.665V35.1024C256.665 36.2848 257.086 36.8644 257.927 36.8644C258.768 36.8644 259.189 36.2848 259.189 35.1024V27.521C259.142 26.3386 258.581 25.759 257.436 25.759Z" fill="white"/>
<path d="M246.009 34.9633L243.204 27.0341C242.854 26.0836 242.223 25.5967 241.335 25.5967C240.447 25.5967 239.793 26.1299 239.395 27.2196L236.521 34.9864C236.451 35.2183 236.404 35.4501 236.404 35.7052C236.404 36.0529 236.521 36.3311 236.731 36.5398C236.965 36.7485 237.245 36.8644 237.596 36.8644C238.18 36.8644 238.577 36.4934 238.811 35.7747L239.255 34.4068H243.181L243.602 35.682C243.859 36.4703 244.303 36.8644 244.934 36.8644C245.284 36.8644 245.588 36.7717 245.822 36.563C246.056 36.3543 246.196 36.0761 246.196 35.7283C246.196 35.6124 246.172 35.4965 246.149 35.3806C246.126 35.2647 246.079 35.1255 246.009 34.9633ZM240.003 32.2043L241.265 28.3325H241.312L242.527 32.2043H240.003Z" fill="white"/>
<path d="M232.034 30.9291V30.8828C232.501 30.6741 232.852 30.4191 233.132 30.0713C233.413 29.7467 233.53 29.2598 233.53 28.6339C233.53 27.6601 233.203 26.895 232.548 26.385C231.894 25.8749 230.912 25.5967 229.604 25.5967C229.136 25.5967 228.692 25.643 228.272 25.7126C227.851 25.7822 227.477 25.8981 227.173 26.0372C226.846 26.1763 226.612 26.3386 226.426 26.5472C226.215 26.7327 226.122 26.9414 226.122 27.1732C226.122 27.5674 226.215 27.8224 226.402 27.9383C226.589 28.0542 226.846 28.1238 227.173 28.1238C227.384 28.1238 227.571 28.1006 227.758 28.0542C227.921 28.0079 228.108 27.9615 228.272 27.9151C228.459 27.8688 228.622 27.7992 228.833 27.776C229.019 27.7297 229.253 27.7065 229.51 27.7065C230.515 27.7065 231.029 28.1006 231.029 28.8889C231.029 29.2598 230.889 29.5149 230.609 29.6772C230.328 29.8395 230.001 29.9322 229.604 29.9322H228.926C228.459 29.9322 228.061 30.0249 227.781 30.2104C227.477 30.3959 227.337 30.6509 227.337 30.9755C227.337 31.3233 227.477 31.5783 227.781 31.7638C228.085 31.9493 228.459 32.0188 228.926 32.0188H229.627C230.118 32.0188 230.515 32.1579 230.796 32.4129C231.076 32.6912 231.216 32.9926 231.216 33.3635C231.216 33.7577 231.076 34.0822 230.796 34.3141C230.515 34.5459 230.094 34.6619 229.534 34.6619C229.066 34.6619 228.716 34.6387 228.482 34.5691C228.248 34.4996 228.061 34.4532 227.898 34.3836C227.734 34.3141 227.594 34.2445 227.454 34.1982C227.314 34.1286 227.08 34.1054 226.799 34.1054C226.496 34.1054 226.239 34.175 226.052 34.3373C225.841 34.4764 225.748 34.7314 225.748 35.056C225.748 35.3806 225.841 35.6588 226.028 35.8906C226.215 36.1225 226.496 36.308 226.823 36.4703C227.15 36.6094 227.547 36.7253 228.015 36.7948C228.482 36.8644 228.973 36.9108 229.487 36.9108C230.305 36.9108 231.006 36.818 231.567 36.6557C232.128 36.4934 232.572 36.2384 232.922 35.937C233.273 35.6356 233.506 35.2647 233.647 34.8473C233.787 34.43 233.857 33.9663 233.857 33.4794C233.857 32.9926 233.717 32.5057 233.436 32.0188C233.109 31.5087 232.642 31.161 232.034 30.9291Z" fill="white"/>
<path d="M337.055 65.3351H337.989V72.2673C337.989 73.4265 338.41 74.0061 339.228 74.0061C340.046 74.0061 340.466 73.4265 340.466 72.2673V65.3351H341.378C342.57 65.3351 343.154 64.9641 343.154 64.199C343.154 63.434 342.57 63.0398 341.378 63.0398H337.055C335.863 63.0398 335.278 63.434 335.278 64.199C335.278 64.9641 335.863 65.3351 337.055 65.3351Z" fill="white"/>
<path d="M330.745 63.0398H327.964C327.263 63.0398 326.796 63.1789 326.585 63.4571C326.375 63.7353 326.258 64.1759 326.258 64.7555V72.2905C326.258 72.8701 326.375 73.2874 326.609 73.5193C326.842 73.7511 327.286 73.867 327.941 73.867H330.838C332.03 73.867 332.614 73.4961 332.614 72.731C332.614 71.9659 332.03 71.5717 330.838 71.5717H328.735V69.5315H330.488C331.656 69.5315 332.241 69.1605 332.241 68.3955C332.241 67.6304 331.656 67.2594 330.488 67.2594H328.712V65.3119H330.745C331.937 65.3119 332.521 64.9409 332.521 64.1759C332.521 63.4339 331.937 63.0398 330.745 63.0398Z" fill="white"/>
<path d="M317.822 65.3351H318.757V72.2673C318.757 73.4265 319.177 74.0061 319.995 74.0061C320.813 74.0061 321.234 73.4265 321.234 72.2673V65.3351H322.145C323.337 65.3351 323.921 64.9641 323.921 64.199C323.921 63.434 323.337 63.0398 322.145 63.0398H317.822C316.63 63.0398 316.046 63.434 316.046 64.199C316.046 64.9641 316.63 65.3351 317.822 65.3351Z" fill="white"/>
<path d="M310.881 67.2826V72.2673C310.881 73.4265 311.302 74.0061 312.12 74.0061C312.938 74.0061 313.358 73.4265 313.358 72.2673V64.57C313.358 64.0368 313.265 63.6194 313.101 63.3412C312.914 63.063 312.634 62.9007 312.213 62.9007C311.933 62.9007 311.699 62.9703 311.489 63.1094C311.302 63.2485 311.092 63.4571 310.905 63.7122L306.301 69.7402V64.6627C306.301 63.4803 305.88 62.9007 305.062 62.9007C304.244 62.9007 303.824 63.4803 303.824 64.6627V72.5455C303.824 73.0556 303.917 73.4265 304.081 73.6584C304.244 73.8902 304.548 74.0061 304.922 74.0061C305.203 74.0061 305.436 73.9366 305.67 73.8207C305.904 73.7047 306.137 73.4961 306.371 73.1715L310.881 67.2826Z" fill="white"/>
<path d="M297.771 74.0061C298.776 74.0061 299.594 73.8207 300.202 73.4729C300.809 73.1019 301.113 72.7078 301.113 72.2441C301.113 71.9659 301.019 71.7109 300.809 71.5022C300.599 71.2935 300.365 71.1776 300.131 71.1776C299.851 71.1776 299.524 71.2703 299.173 71.4326C298.823 71.6181 298.379 71.6877 297.888 71.6877C297.07 71.6877 296.416 71.4095 295.925 70.853C295.434 70.2966 295.177 69.5083 295.177 68.5346C295.177 67.5144 295.411 66.7262 295.902 66.1234C296.392 65.5206 297.023 65.2424 297.795 65.2424C298.239 65.2424 298.659 65.3119 299.01 65.451C299.36 65.5901 299.687 65.6597 299.945 65.6597C300.225 65.6597 300.459 65.5437 300.669 65.3351C300.879 65.1264 300.973 64.8714 300.973 64.5932C300.973 64.3845 300.903 64.1527 300.739 63.9672C300.575 63.7585 300.365 63.5962 300.085 63.4339C299.804 63.2717 299.454 63.1557 299.08 63.063C298.683 62.9703 298.262 62.9239 297.795 62.9239C297.047 62.9239 296.369 63.063 295.738 63.318C295.107 63.5731 294.546 63.944 294.079 64.4309C293.611 64.9178 293.238 65.4974 292.981 66.1929C292.7 66.8885 292.583 67.6535 292.583 68.4882C292.583 69.346 292.7 70.1111 292.957 70.8067C293.214 71.5022 293.565 72.0818 294.032 72.5455C294.5 73.0324 295.037 73.3801 295.691 73.6352C296.322 73.867 297.023 74.0061 297.771 74.0061Z" fill="white"/>
<path d="M289.055 64.0367C288.353 63.3644 287.372 63.0398 286.11 63.0398H283.867C283.166 63.0398 282.698 63.1789 282.488 63.4571C282.278 63.7353 282.161 64.1759 282.161 64.7555V72.2441C282.161 73.4033 282.581 73.9829 283.399 73.9829C284.217 73.9829 284.638 73.4033 284.638 72.2441V70.3661H286.32C287.536 70.3661 288.47 70.0416 289.125 69.3924C289.779 68.7432 290.13 67.839 290.13 66.703C290.13 65.6133 289.756 64.7091 289.055 64.0367ZM285.713 68.1636H284.638V65.3351H285.713C286.858 65.3351 287.419 65.7988 287.419 66.7494C287.419 67.6767 286.858 68.1636 285.713 68.1636Z" fill="white"/>
<path d="M277.37 71.5717H275.267V69.5315H277.019C278.188 69.5315 278.772 69.1605 278.772 68.3955C278.772 67.6304 278.188 67.2594 277.019 67.2594H275.267V65.3119H277.3C278.492 65.3119 279.076 64.9409 279.076 64.1759C279.076 63.4108 278.492 63.0166 277.3 63.0166H274.519C273.818 63.0166 273.351 63.1557 273.14 63.434C272.93 63.7122 272.813 64.1527 272.813 64.7323V72.2673C272.813 72.8469 272.93 73.2642 273.164 73.4961C273.397 73.7279 273.841 73.8438 274.496 73.8438H277.393C278.585 73.8438 279.169 73.4729 279.169 72.7078C279.146 71.9659 278.562 71.5717 277.37 71.5717Z" fill="white"/>
<path d="M268.022 68.1636V68.1172C268.537 67.8622 268.887 67.5376 269.051 67.1203C269.214 66.7262 269.308 66.2393 269.308 65.706C269.308 64.8946 268.957 64.2454 268.256 63.7354C267.555 63.2485 266.644 62.9934 265.522 62.9934H263.512C262.811 62.9934 262.344 63.1325 262.133 63.4108C261.923 63.689 261.806 64.1295 261.806 64.7091V72.2441C261.806 72.8237 261.923 73.241 262.157 73.4729C262.39 73.7047 262.834 73.8207 263.489 73.8207H265.943C267.204 73.8207 268.186 73.5193 268.84 72.9396C269.495 72.3368 269.845 71.5486 269.845 70.5748C269.845 69.9025 269.705 69.3924 269.425 68.9983C269.121 68.6737 268.653 68.3723 268.022 68.1636ZM264.26 65.1496H265.335C266.316 65.1496 266.784 65.4974 266.784 66.1929C266.784 66.5871 266.69 66.8653 266.48 67.0276C266.27 67.1899 265.896 67.2826 265.335 67.2826H264.26V65.1496ZM266.831 71.4326C266.574 71.6413 266.153 71.734 265.499 71.734H264.26V69.1837H265.452C266.106 69.1837 266.574 69.2765 266.807 69.4851C267.064 69.6938 267.181 70.0416 267.181 70.5284C267.204 70.9226 267.088 71.224 266.831 71.4326Z" fill="white"/>
<path d="M257.576 62.9007C257.296 62.9007 257.062 62.9703 256.852 63.1094C256.665 63.2485 256.455 63.4571 256.268 63.7122L251.664 69.7402V64.6627C251.664 63.4803 251.243 62.9007 250.426 62.9007C249.608 62.9007 249.187 63.4803 249.187 64.6627V72.5455C249.187 73.0556 249.28 73.4265 249.444 73.6584C249.608 73.8902 249.888 74.0061 250.285 74.0061C250.566 74.0061 250.799 73.9366 251.033 73.8207C251.267 73.7047 251.5 73.4961 251.734 73.1715L256.244 67.2826V72.2673C256.244 73.4265 256.665 74.0061 257.483 74.0061C258.301 74.0061 258.722 73.4265 258.722 72.2673V64.57C258.722 64.0368 258.628 63.6194 258.464 63.3412C258.278 63.0398 257.997 62.9007 257.576 62.9007Z" fill="white"/>
<path d="M244.723 62.9007C243.906 62.9007 243.485 63.4803 243.485 64.6627V67.213H238.905V64.6627C238.905 63.4803 238.484 62.9007 237.666 62.9007C236.848 62.9007 236.427 63.4803 236.427 64.6627V72.2673C236.427 73.4265 236.848 74.0061 237.666 74.0061C238.484 74.0061 238.905 73.4265 238.905 72.2673V69.5083H243.485V72.2673C243.485 73.4265 243.906 74.0061 244.723 74.0061C245.541 74.0061 245.962 73.4265 245.962 72.2673V64.6627C245.962 63.4803 245.541 62.9007 244.723 62.9007Z" fill="white"/>
<path d="M232.735 62.9007C232.408 62.9007 232.174 62.9934 231.987 63.1557C231.824 63.3412 231.66 63.6194 231.497 64.0367L229.534 69.2069H229.487L227.337 63.944C227.173 63.5731 227.01 63.2948 226.846 63.1325C226.683 62.9703 226.472 62.8775 226.192 62.8775C225.841 62.8775 225.537 62.9934 225.327 63.2253C225.117 63.4571 225 63.7585 225 64.1063C225 64.3613 225.047 64.5932 225.14 64.8018L228.225 72.36L227.524 74.0989C227.43 74.3307 227.384 74.5626 227.384 74.8176C227.384 75.1654 227.477 75.4668 227.664 75.6754C227.851 75.8841 228.131 76 228.505 76C228.762 76 228.973 75.9536 229.16 75.8377C229.347 75.745 229.557 75.4436 229.721 74.9799L233.693 64.8482C233.763 64.7091 233.787 64.5468 233.833 64.4077C233.857 64.2686 233.88 64.1295 233.88 64.0136C233.88 63.6658 233.787 63.3876 233.6 63.1789C233.413 62.9934 233.132 62.9007 232.735 62.9007Z" fill="white"/>
</svg>
