<svg id="svg" fill="#000000" stroke="#000000" width="200px" height="200px" version="1.1" viewBox="144 144 512 512" xmlns="http://www.w3.org/2000/svg">
    <g id="IconSvg_bgCarrier" stroke-width="0"></g>
    <g id="IconSvg_tracerCarrier" stroke-linecap="round" stroke-linejoin="round" stroke="#CCCCCC"></g>
     <g id="IconSvg_iconCarrier">
      <g xmlns="http://www.w3.org/2000/svg">
  <path d="m332.81 438.36c-59.73 15.641-97.336 53.52-109.53 106.72-3.5469 15.219 1.9531 19.664 8.7812 21.766 46.945 14.461 133.84 19.594 167.94 19.594 34.098 0 120.99-5.1328 167.93-19.594 6.832-2.1016 12.328-6.5469 8.7812-21.766-12.195-53.199-49.809-91.082-109.53-106.72l-61.742 51.715c-3.1406 2.6328-7.7227 2.6328-10.867 0z"></path>
  <path d="m399.99 213.55c-51.945 0-93.762 42.262-93.762 94.762v6.4062c0 52.496 41.816 94.758 93.762 94.758 51.949 0 93.766-42.262 93.766-94.758v-6.4062c0-52.5-41.816-94.762-93.766-94.762z" fill-rule="evenodd"></path>
 </g>

      </g>
      </svg>